<svg xmlns="http://www.w3.org/2000/svg" xmlns:xlink="http://www.w3.org/1999/xlink" width="500" zoomAndPan="magnify" viewBox="0 0 375 374.999991" height="500" preserveAspectRatio="xMidYMid meet" version="1.0"><defs><g/><clipPath id="44cba00289"><path d="M 0.640625 0.714844 L 345.285156 0.714844 L 345.285156 345.359375 L 0.640625 345.359375 Z M 0.640625 0.714844 " clip-rule="nonzero"/></clipPath><clipPath id="e025175daa"><path d="M 172.964844 0.714844 C 77.792969 0.714844 0.640625 77.867188 0.640625 173.035156 C 0.640625 268.207031 77.792969 345.359375 172.964844 345.359375 C 268.132812 345.359375 345.285156 268.207031 345.285156 173.035156 C 345.285156 77.867188 268.132812 0.714844 172.964844 0.714844 Z M 172.964844 0.714844 " clip-rule="nonzero"/></clipPath><clipPath id="4828fa1db5"><path d="M 0.640625 0.714844 L 345.285156 0.714844 L 345.285156 345.359375 L 0.640625 345.359375 Z M 0.640625 0.714844 " clip-rule="nonzero"/></clipPath><clipPath id="562036ffb8"><path d="M 172.964844 0.714844 C 77.792969 0.714844 0.640625 77.867188 0.640625 173.035156 C 0.640625 268.207031 77.792969 345.359375 172.964844 345.359375 C 268.132812 345.359375 345.285156 268.207031 345.285156 173.035156 C 345.285156 77.867188 268.132812 0.714844 172.964844 0.714844 Z M 172.964844 0.714844 " clip-rule="nonzero"/></clipPath><clipPath id="dbf38503b2"><rect x="0" width="346" y="0" height="346"/></clipPath><clipPath id="b3ec7a612e"><rect x="0" width="346" y="0" height="346"/></clipPath></defs><g transform="matrix(1, 0, 0, 1, 16, 13)"><g clip-path="url(#b3ec7a612e)"><g clip-path="url(#44cba00289)"><g clip-path="url(#e025175daa)"><g transform="matrix(1, 0, 0, 1, 0.000000000000003553, 0)"><g clip-path="url(#dbf38503b2)"><g clip-path="url(#4828fa1db5)"><g clip-path="url(#562036ffb8)"><path fill="#10bb82" d="M 0.640625 0.714844 L 345.285156 0.714844 L 345.285156 345.359375 L 0.640625 345.359375 Z M 0.640625 0.714844 " fill-opacity="1" fill-rule="nonzero"/></g></g></g></g></g></g><g fill="#f5f5f5" fill-opacity="1"><g transform="translate(12.723199, 216.106451)"><g><path d="M 26.875 0.765625 C 18.082031 0.765625 11.617188 -1.039062 7.484375 -4.65625 C 3.816406 -7.851562 1.984375 -12.21875 1.984375 -17.75 C 1.984375 -23.269531 3.816406 -27.628906 7.484375 -30.828125 C 11.617188 -34.441406 18.082031 -36.25 26.875 -36.25 C 35.65625 -36.25 42.117188 -34.441406 46.265625 -30.828125 C 49.929688 -27.628906 51.765625 -23.269531 51.765625 -17.75 C 51.765625 -12.21875 49.929688 -7.851562 46.265625 -4.65625 C 42.117188 -1.039062 35.65625 0.765625 26.875 0.765625 Z M 26.875 -8.765625 C 30.46875 -8.765625 33.109375 -9.796875 34.796875 -11.859375 C 36.148438 -13.523438 36.828125 -15.488281 36.828125 -17.75 C 36.828125 -20.019531 36.148438 -21.976562 34.796875 -23.625 C 33.109375 -25.707031 30.46875 -26.75 26.875 -26.75 C 23.269531 -26.75 20.617188 -25.707031 18.921875 -23.625 C 17.566406 -21.976562 16.890625 -20.019531 16.890625 -17.75 C 16.890625 -15.488281 17.566406 -13.523438 18.921875 -11.859375 C 20.617188 -9.796875 23.269531 -8.765625 26.875 -8.765625 Z M 26.875 -8.765625 "/></g></g></g><g fill="#f5f5f5" fill-opacity="1"><g transform="translate(62.137664, 216.106451)"><g><path d="M 56.6875 0 L 38.953125 0 L 18.875 -24.046875 L 18.875 0 L 3.96875 0 L 3.96875 -35.53125 L 21.6875 -35.53125 L 41.78125 -11.609375 L 41.78125 -35.53125 L 56.6875 -35.53125 Z M 56.6875 0 "/></g></g></g><g fill="#f5f5f5" fill-opacity="1"><g transform="translate(118.459734, 216.106451)"><g><path d="M 46.75 0 L 3.96875 0 L 3.96875 -35.53125 L 44.796875 -35.53125 L 44.796875 -26.75 L 18.875 -26.75 L 18.875 -21.171875 L 40.78125 -21.171875 L 40.78125 -14.34375 L 18.875 -14.34375 L 18.875 -8.796875 L 46.75 -8.796875 Z M 46.75 0 "/></g></g></g><g fill="#f5f5f5" fill-opacity="1"><g transform="translate(162.877344, 216.106451)"><g/></g></g><g fill="#ffffff" fill-opacity="1"><g transform="translate(157.232932, 171.925156)"><g><path d="M 23.484375 0.765625 C 18.671875 0.765625 14.796875 0.25 11.859375 -0.78125 C 8.921875 -1.8125 6.679688 -3.226562 5.140625 -5.03125 C 3.609375 -6.84375 2.582031 -8.929688 2.0625 -11.296875 L 17.875 -11.296875 C 19.050781 -9.609375 20.921875 -8.765625 23.484375 -8.765625 C 26.035156 -8.765625 27.898438 -9.609375 29.078125 -11.296875 C 29.171875 -11.460938 29.21875 -11.609375 29.21875 -11.734375 C 29.21875 -12.179688 28.628906 -12.515625 27.453125 -12.734375 C 26.273438 -12.960938 24.515625 -13.132812 22.171875 -13.25 C 19.210938 -13.382812 16.109375 -13.695312 12.859375 -14.1875 C 5.609375 -15.3125 1.984375 -18.226562 1.984375 -22.9375 C 1.984375 -23.332031 2.007812 -23.753906 2.0625 -24.203125 C 2.582031 -26.554688 3.609375 -28.632812 5.140625 -30.4375 C 6.679688 -32.25 8.921875 -33.671875 11.859375 -34.703125 C 14.796875 -35.734375 18.671875 -36.25 23.484375 -36.25 C 28.285156 -36.25 32.15625 -35.734375 35.09375 -34.703125 C 38.03125 -33.671875 40.265625 -32.25 41.796875 -30.4375 C 43.335938 -28.632812 44.375 -26.554688 44.90625 -24.203125 L 29.078125 -24.203125 C 27.898438 -25.878906 26.035156 -26.71875 23.484375 -26.71875 C 20.921875 -26.71875 19.050781 -25.878906 17.875 -24.203125 C 17.789062 -24.066406 17.75 -23.941406 17.75 -23.828125 C 17.75 -23.429688 18.316406 -23.132812 19.453125 -22.9375 C 20.585938 -22.75 22.253906 -22.585938 24.453125 -22.453125 C 26.660156 -22.328125 29.007812 -22.113281 31.5 -21.8125 C 33.988281 -21.519531 36.316406 -21.003906 38.484375 -20.265625 C 40.660156 -19.535156 42.363281 -18.453125 43.59375 -17.015625 C 44.539062 -15.910156 45.015625 -14.503906 45.015625 -12.796875 C 45.015625 -12.316406 44.976562 -11.816406 44.90625 -11.296875 C 44.375 -8.929688 43.335938 -6.84375 41.796875 -5.03125 C 40.265625 -3.226562 38.03125 -1.8125 35.09375 -0.78125 C 32.15625 0.25 28.285156 0.765625 23.484375 0.765625 Z M 23.484375 0.765625 "/></g></g></g><g fill="#ffffff" fill-opacity="1"><g transform="translate(199.913107, 171.925156)"><g><path d="M 30.3125 0 L 15.40625 0 L 15.40625 -26.75 L 1.484375 -26.75 L 1.484375 -35.53125 L 44.234375 -35.53125 L 44.234375 -26.75 L 30.3125 -26.75 Z M 30.3125 0 "/></g></g></g><g fill="#ffffff" fill-opacity="1"><g transform="translate(241.305845, 171.925156)"><g><path d="M 46.75 0 L 3.96875 0 L 3.96875 -35.53125 L 44.796875 -35.53125 L 44.796875 -26.75 L 18.875 -26.75 L 18.875 -21.171875 L 40.78125 -21.171875 L 40.78125 -14.34375 L 18.875 -14.34375 L 18.875 -8.796875 L 46.75 -8.796875 Z M 46.75 0 "/></g></g></g><g fill="#ffffff" fill-opacity="1"><g transform="translate(285.71911, 171.925156)"><g><path d="M 18.875 0 L 3.96875 0 L 3.96875 -35.53125 L 28.203125 -35.53125 C 34.003906 -35.53125 38.679688 -35.097656 42.234375 -34.234375 C 45.796875 -33.367188 48.394531 -32.003906 50.03125 -30.140625 C 51.664062 -28.285156 52.484375 -25.867188 52.484375 -22.890625 C 52.484375 -19.910156 51.664062 -17.492188 50.03125 -15.640625 C 48.394531 -13.785156 45.796875 -12.421875 42.234375 -11.546875 C 38.679688 -10.679688 34.003906 -10.25 28.203125 -10.25 L 18.875 -10.25 Z M 18.875 -19.015625 L 27.390625 -19.046875 C 29.765625 -19.046875 31.632812 -19.140625 33 -19.328125 C 34.375 -19.515625 35.390625 -19.78125 36.046875 -20.125 C 36.703125 -20.476562 37.117188 -20.890625 37.296875 -21.359375 C 37.472656 -21.828125 37.5625 -22.335938 37.5625 -22.890625 C 37.5625 -23.441406 37.472656 -23.953125 37.296875 -24.421875 C 37.117188 -24.898438 36.703125 -25.3125 36.046875 -25.65625 C 35.390625 -26 34.375 -26.265625 33 -26.453125 C 31.632812 -26.648438 29.765625 -26.75 27.390625 -26.75 L 18.875 -26.75 Z M 18.875 -19.015625 "/></g></g></g><path stroke-linecap="round" transform="matrix(0.00000000122408, -0.701348, 0.701348, 0.00000000122408, 141.048324, 165.834193)" fill="none" stroke-linejoin="miter" d="M 4.497777 4.498199 L 67.412369 4.498199 " stroke="#ffffff" stroke-width="9" stroke-opacity="1" stroke-miterlimit="4"/><path stroke-linecap="round" transform="matrix(-0.701348, 0, 0, -0.701348, 201.069927, 121.712546)" fill="none" stroke-linejoin="miter" d="M 4.499715 4.502558 L 79.806744 4.502558 " stroke="#ffffff" stroke-width="9" stroke-opacity="1" stroke-miterlimit="4"/><path stroke-linecap="round" transform="matrix(0.701348, 0, 0, 0.701348, 80.029206, 159.524555)" fill="none" stroke-linejoin="miter" d="M 4.497609 4.498671 L 90.225424 4.498671 " stroke="#ffffff" stroke-width="9" stroke-opacity="1" stroke-miterlimit="4"/></g></g></svg>